<svg xmlns="http://www.w3.org/2000/svg" width="860" height="360" viewBox="0 0 860 360">
  <rect width="100%" height="100%" fill="#ffffff"/>
  <text x="90" y="26" font-family="Arial, sans-serif" font-size="24" font-weight="700" fill="#102a43">
    RingRift headline results
  </text>
  <text x="90" y="44" font-family="Arial, sans-serif" font-size="13" fill="#52606d">
    Snapshot as of 2026-05-01. Higher bars indicate stronger best reported Elo.
  </text>
  <line x1="90" y1="290.0" x2="830" y2="290.0" stroke="#d7dee7" stroke-width="1" /><text x="78" y="295.0" text-anchor="end" font-family="Arial, sans-serif" font-size="12" fill="#4a5568">1400</text><line x1="90" y1="251.8" x2="830" y2="251.8" stroke="#d7dee7" stroke-width="1" /><text x="78" y="256.8" text-anchor="end" font-family="Arial, sans-serif" font-size="12" fill="#4a5568">1500</text><line x1="90" y1="213.6" x2="830" y2="213.6" stroke="#d7dee7" stroke-width="1" /><text x="78" y="218.6" text-anchor="end" font-family="Arial, sans-serif" font-size="12" fill="#4a5568">1600</text><line x1="90" y1="175.4" x2="830" y2="175.4" stroke="#d7dee7" stroke-width="1" /><text x="78" y="180.4" text-anchor="end" font-family="Arial, sans-serif" font-size="12" fill="#4a5568">1700</text><line x1="90" y1="137.2" x2="830" y2="137.2" stroke="#d7dee7" stroke-width="1" /><text x="78" y="142.2" text-anchor="end" font-family="Arial, sans-serif" font-size="12" fill="#4a5568">1800</text><line x1="90" y1="99.0" x2="830" y2="99.0" stroke="#d7dee7" stroke-width="1" /><text x="78" y="104.0" text-anchor="end" font-family="Arial, sans-serif" font-size="12" fill="#4a5568">1900</text><line x1="90" y1="60.8" x2="830" y2="60.8" stroke="#d7dee7" stroke-width="1" /><text x="78" y="65.8" text-anchor="end" font-family="Arial, sans-serif" font-size="12" fill="#4a5568">2000</text><line x1="90" y1="22.6" x2="830" y2="22.6" stroke="#d7dee7" stroke-width="1" /><text x="78" y="27.6" text-anchor="end" font-family="Arial, sans-serif" font-size="12" fill="#4a5568">2100</text>
  <line x1="90" y1="290.0" x2="830" y2="290.0" stroke="#7b8794" stroke-width="2" />
  <rect x="160" y="50.0" width="140" height="240.0" rx="8" fill="#1b5e20" opacity="0.92" /><rect x="370" y="144.1" width="140" height="145.9" rx="8" fill="#0d47a1" opacity="0.92" /><rect x="580" y="238.5" width="140" height="51.5" rx="8" fill="#b26a00" opacity="0.92" />
  <text x="230.0" y="314" text-anchor="middle" font-family="Arial, sans-serif" font-size="14" font-weight="700" fill="#1f2933">hex8_2p</text><text x="230.0" y="334" text-anchor="middle" font-family="Arial, sans-serif" font-size="13" fill="#52606d">2028.3 Elo · 6 promotions</text><text x="230.0" y="40.0" text-anchor="middle" font-family="Arial, sans-serif" font-size="13" font-weight="700" fill="#1b5e20">2028.3</text><text x="440.0" y="314" text-anchor="middle" font-family="Arial, sans-serif" font-size="14" font-weight="700" fill="#1f2933">square8_2p</text><text x="440.0" y="334" text-anchor="middle" font-family="Arial, sans-serif" font-size="13" fill="#52606d">1782.0 Elo · 5 promotions</text><text x="440.0" y="134.1" text-anchor="middle" font-family="Arial, sans-serif" font-size="13" font-weight="700" fill="#0d47a1">1782.0</text><text x="650.0" y="314" text-anchor="middle" font-family="Arial, sans-serif" font-size="14" font-weight="700" fill="#1f2933">square8_3p</text><text x="650.0" y="334" text-anchor="middle" font-family="Arial, sans-serif" font-size="13" fill="#52606d">1534.9 Elo · 1 promotions</text><text x="650.0" y="228.5" text-anchor="middle" font-family="Arial, sans-serif" font-size="13" font-weight="700" fill="#b26a00">1534.9</text>
</svg>
