<svg xmlns="http://www.w3.org/2000/svg" width="860" height="360" viewBox="0 0 860 360">
  <rect width="100%" height="100%" fill="#ffffff"/>
  <text x="80" y="26" font-family="Arial, sans-serif" font-size="24" font-weight="700" fill="#102a43">
    square8_2p recent Elo progression
  </text>
  <text x="80" y="44" font-family="Arial, sans-serif" font-size="13" fill="#52606d">
    The April 2026 clean-harness run is the clearest recent improvement story in the project.
  </text>
  <line x1="80" y1="285.6" x2="830" y2="285.6" stroke="#e4e7eb" stroke-width="1" /><text x="70" y="289.6" text-anchor="end" font-family="Arial, sans-serif" font-size="12" fill="#52606d">1600</text><line x1="80" y1="257.1" x2="830" y2="257.1" stroke="#e4e7eb" stroke-width="1" /><text x="70" y="261.1" text-anchor="end" font-family="Arial, sans-serif" font-size="12" fill="#52606d">1625</text><line x1="80" y1="228.5" x2="830" y2="228.5" stroke="#e4e7eb" stroke-width="1" /><text x="70" y="232.5" text-anchor="end" font-family="Arial, sans-serif" font-size="12" fill="#52606d">1650</text><line x1="80" y1="200.0" x2="830" y2="200.0" stroke="#e4e7eb" stroke-width="1" /><text x="70" y="204.0" text-anchor="end" font-family="Arial, sans-serif" font-size="12" fill="#52606d">1675</text><line x1="80" y1="171.5" x2="830" y2="171.5" stroke="#e4e7eb" stroke-width="1" /><text x="70" y="175.5" text-anchor="end" font-family="Arial, sans-serif" font-size="12" fill="#52606d">1700</text><line x1="80" y1="142.9" x2="830" y2="142.9" stroke="#e4e7eb" stroke-width="1" /><text x="70" y="146.9" text-anchor="end" font-family="Arial, sans-serif" font-size="12" fill="#52606d">1725</text><line x1="80" y1="114.4" x2="830" y2="114.4" stroke="#e4e7eb" stroke-width="1" /><text x="70" y="118.4" text-anchor="end" font-family="Arial, sans-serif" font-size="12" fill="#52606d">1750</text><line x1="80" y1="85.8" x2="830" y2="85.8" stroke="#e4e7eb" stroke-width="1" /><text x="70" y="89.8" text-anchor="end" font-family="Arial, sans-serif" font-size="12" fill="#52606d">1775</text><line x1="80" y1="57.3" x2="830" y2="57.3" stroke="#e4e7eb" stroke-width="1" /><text x="70" y="61.3" text-anchor="end" font-family="Arial, sans-serif" font-size="12" fill="#52606d">1800</text>
  <line x1="80" y1="295.0" x2="830" y2="295.0" stroke="#7b8794" stroke-width="2" />
  <path d="M 80.0 283.6 L 380.0 271.7 L 530.0 271.7 L 680.0 174.5 L 830.0 77.8" fill="none" stroke="#0d47a1" stroke-width="3" stroke-linecap="round" stroke-linejoin="round" />
  <circle cx="80.0" cy="283.6" r="7" fill="#2f855a" /><circle cx="380.0" cy="271.7" r="7" fill="#2f855a" /><circle cx="530.0" cy="271.7" r="5" fill="#0d47a1" /><circle cx="680.0" cy="174.5" r="7" fill="#2f855a" /><circle cx="830.0" cy="77.8" r="7" fill="#2f855a" />
  <text x="80.0" y="319" text-anchor="middle" font-family="Arial, sans-serif" font-size="12" fill="#1f2933">iter 30</text><text x="80.0" y="271.6" text-anchor="middle" font-family="Arial, sans-serif" font-size="12" font-weight="700" fill="#2f855a">1601.8</text><text x="380.0" y="319" text-anchor="middle" font-family="Arial, sans-serif" font-size="12" fill="#1f2933">iter 32</text><text x="380.0" y="259.7" text-anchor="middle" font-family="Arial, sans-serif" font-size="12" font-weight="700" fill="#2f855a">1612.2</text><text x="530.0" y="319" text-anchor="middle" font-family="Arial, sans-serif" font-size="12" fill="#1f2933">iter 33</text><text x="530.0" y="259.7" text-anchor="middle" font-family="Arial, sans-serif" font-size="12" font-weight="700" fill="#0d47a1">1612.2</text><text x="680.0" y="319" text-anchor="middle" font-family="Arial, sans-serif" font-size="12" fill="#1f2933">iter 34</text><text x="680.0" y="162.5" text-anchor="middle" font-family="Arial, sans-serif" font-size="12" font-weight="700" fill="#2f855a">1697.3</text><text x="830.0" y="319" text-anchor="middle" font-family="Arial, sans-serif" font-size="12" fill="#1f2933">iter 35</text><text x="830.0" y="65.8" text-anchor="middle" font-family="Arial, sans-serif" font-size="12" font-weight="700" fill="#2f855a">1782.0</text>
  <rect x="652" y="24" width="160" height="54" rx="10" fill="#f7fafc" stroke="#d9e2ec" />
  <circle cx="672" cy="45" r="6" fill="#2f855a" />
  <text x="686" y="49" font-family="Arial, sans-serif" font-size="13" fill="#1f2933">Promotion</text>
  <circle cx="672" cy="64" r="5" fill="#0d47a1" />
  <text x="686" y="68" font-family="Arial, sans-serif" font-size="13" fill="#1f2933">Non-promotion checkpoint</text>
</svg>
